<?xml version="1.0" standalone="no"?>
<!DOCTYPE svg PUBLIC "-//W3C//DTD SVG 20010904//EN"
 "http://www.w3.org/TR/2001/REC-SVG-20010904/DTD/svg10.dtd">
<svg version="1.0" xmlns="http://www.w3.org/2000/svg"
 width="209.000000pt" height="149.000000pt" viewBox="0 0 209.000000 149.000000"
 preserveAspectRatio="xMidYMid meet">

<g transform="translate(0.000000,149.000000) scale(0.100000,-0.100000)"
fill="#000000" stroke="none">
<path d="M1323 1387 c-23 -39 -67 -109 -97 -155 -31 -46 -56 -86 -56 -90 0
-11 60 75 121 175 44 71 59 89 54 66 -4 -18 -4 -33 -2 -33 6 0 29 101 24 106
-2 2 -22 -29 -44 -69z"/>
<path d="M1686 1350 c-20 -22 -64 -97 -97 -168 -128 -267 -142 -293 -175 -329
-19 -20 -34 -45 -34 -55 0 -10 -5 -18 -11 -18 -8 0 -10 13 -6 36 l6 37 -26
-24 c-23 -21 -25 -22 -18 -4 20 53 16 60 -14 25 -17 -19 -31 -42 -31 -52 0 -9
-4 -20 -10 -23 -19 -12 -10 27 17 73 15 25 22 43 16 39 -6 -4 -25 -31 -41 -60
-16 -28 -44 -70 -62 -92 l-33 -40 7 34 c3 19 27 66 52 105 67 104 154 285 160
331 4 36 3 35 -11 -12 -16 -57 -68 -166 -121 -254 -29 -48 -224 -262 -224
-245 0 3 50 102 110 220 76 146 108 219 103 231 -4 11 -2 16 4 12 5 -3 17 9
26 27 17 36 68 81 102 89 19 4 19 5 -1 6 -12 0 -33 -8 -48 -20 -31 -25 -31
-26 -6 46 11 32 20 63 19 69 0 6 -14 -27 -31 -74 -24 -70 -49 -111 -138 -230
-105 -141 -160 -225 -160 -245 0 -5 13 13 28 40 33 60 193 278 199 271 2 -2
-61 -133 -141 -291 -80 -158 -146 -293 -146 -299 1 -6 9 3 18 21 9 17 38 47
63 66 25 20 63 58 85 87 l39 51 5 -28 5 -28 40 52 c22 29 42 48 46 42 4 -6 23
-1 52 16 l47 26 0 -26 c0 -47 26 -27 74 59 16 27 31 44 35 38 4 -6 14 11 24
38 10 27 38 83 62 125 57 96 188 345 182 345 -3 0 -21 -18 -41 -40z m-56 -134
c-34 -64 -63 -116 -65 -116 -11 0 49 126 93 197 49 79 34 35 -28 -81z m-314
-394 c0 -10 -6 -19 -13 -19 -16 0 -17 9 -1 25 15 15 14 15 14 -6z m-171 -92
c-34 -49 -126 -142 -133 -135 -3 3 -1 10 5 16 6 6 9 19 6 28 -3 10 -2 12 4 4
5 -7 29 13 72 63 69 78 92 91 46 24z"/>
<path d="M549 1326 c-108 -90 -273 -291 -369 -451 -50 -83 -150 -279 -150
-292 0 -5 33 55 73 132 122 236 243 401 413 565 l99 95 6 -35 6 -35 2 38 c0
20 -3 37 -7 37 -4 0 -37 -24 -73 -54z"/>
<path d="M591 1227 c-13 -39 -39 -108 -57 -151 -19 -44 -32 -81 -30 -83 5 -5
68 146 95 230 13 38 21 70 19 72 -2 3 -15 -28 -27 -68z"/>
<path d="M1733 985 c0 -8 4 -15 9 -15 4 0 8 7 8 15 0 8 -4 15 -8 15 -5 0 -9
-7 -9 -15z"/>
<path d="M434 852 l-60 -127 -150 -108 c-195 -140 -189 -136 -179 -144 4 -5
10 -2 12 4 6 16 282 217 289 210 3 -3 -13 -41 -35 -84 -55 -110 -133 -285
-128 -289 2 -2 21 36 42 84 21 48 64 139 96 203 47 95 64 120 98 142 23 15 41
30 41 32 0 8 -38 -13 -45 -25 -3 -6 -10 -10 -15 -10 -5 0 16 52 46 116 30 64
53 118 51 120 -2 2 -30 -54 -63 -124z"/>
<path d="M1646 824 c-27 -25 -58 -50 -70 -56 -20 -10 -20 -10 2 14 22 24 30
58 14 58 -11 0 -42 -33 -42 -44 0 -5 9 2 20 15 15 19 19 20 20 8 0 -21 -26
-43 -40 -34 -7 4 -10 16 -7 26 3 11 1 19 -4 19 -5 0 -9 -6 -9 -13 0 -18 -59
-107 -71 -107 -5 0 -14 10 -19 23 -5 12 -9 17 -9 10 -2 -21 11 -43 25 -43 8 0
27 18 43 40 25 34 30 38 41 25 18 -22 29 -19 81 25 26 22 52 40 57 40 9 0 26
30 20 35 -2 2 -25 -17 -52 -41z"/>
<path d="M1451 844 c0 -11 3 -14 6 -6 3 7 2 16 -1 19 -3 4 -6 -2 -5 -13z"/>
<path d="M1442 795 c0 -16 2 -22 5 -12 2 9 2 23 0 30 -3 6 -5 -1 -5 -18z"/>
<path d="M1661 789 c-6 -18 -9 -34 -7 -36 2 -2 9 10 15 28 6 18 9 34 7 36 -2
2 -9 -10 -15 -28z"/>
<path d="M1631 709 c-6 -18 -9 -34 -7 -36 2 -2 9 10 15 28 6 18 9 34 7 36 -2
2 -9 -10 -15 -28z"/>
<path d="M725 655 c-55 -49 -80 -58 -70 -24 7 20 5 20 -27 -5 -46 -35 -56 -33
-24 5 34 40 33 59 0 28 l-27 -24 6 23 c4 18 -3 14 -34 -20 -34 -37 -39 -40
-34 -18 7 24 6 24 -20 -5 -29 -33 -29 -35 -9 45 l7 25 -32 -29 c-17 -17 -50
-54 -73 -83 -24 -29 -48 -53 -55 -53 -7 0 -13 -8 -13 -17 1 -19 16 -4 108 102
41 48 43 48 37 20 -3 -16 -9 -39 -12 -50 -5 -18 -3 -17 21 5 21 19 29 21 35
11 6 -9 14 -5 31 19 17 23 25 28 31 19 4 -7 6 -16 3 -20 -10 -17 19 -20 41 -5
14 9 25 12 25 6 0 -21 34 -9 78 28 25 20 53 42 61 49 9 7 12 12 6 12 -5 0 -32
-20 -60 -44z"/>
<path d="M1601 629 c-6 -18 -9 -34 -7 -36 2 -2 9 10 15 28 6 18 9 34 7 36 -2
2 -9 -10 -15 -28z"/>
<path d="M362 613 c-11 -21 -23 -49 -26 -63 -4 -14 6 2 23 35 16 33 28 61 26
63 -2 2 -12 -13 -23 -35z"/>
<path d="M1895 610 c-66 -9 -160 -25 -210 -34 -64 -13 -91 -14 -93 -6 -3 7 -8
6 -16 -3 -6 -8 -54 -25 -106 -37 -127 -29 -311 -81 -443 -125 -60 -20 -111
-35 -113 -32 -3 2 0 17 6 32 6 15 8 30 6 32 -3 3 -10 -13 -16 -35 l-12 -39
-237 -93 c-130 -51 -238 -94 -240 -96 -2 -2 -2 -7 2 -10 3 -3 97 30 209 74
255 100 248 98 248 75 0 -14 3 -12 13 7 10 20 37 33 142 68 126 43 411 122
488 136 37 7 38 6 31 -16 -15 -49 -14 -52 5 -12 l19 41 93 17 c128 24 348 56
381 56 15 0 30 5 33 10 9 14 -49 11 -190 -10z"/>
<path d="M16 555 c-3 -9 -6 -22 -5 -28 0 -7 5 -1 10 12 5 13 8 26 5 28 -2 2
-6 -3 -10 -12z"/>
<path d="M936 475 c-9 -26 -7 -32 5 -12 6 10 9 21 6 23 -2 3 -7 -2 -11 -11z"/>
<path d="M1497 358 c-20 -50 -35 -93 -33 -95 2 -2 20 37 40 88 20 50 35 93 33
95 -2 2 -20 -37 -40 -88z"/>
<path d="M166 285 c-9 -26 -7 -32 5 -12 6 10 9 21 6 23 -2 3 -7 -2 -11 -11z"/>
<path d="M871 274 c0 -11 3 -14 6 -6 3 7 2 16 -1 19 -3 4 -6 -2 -5 -13z"/>
<path d="M1398 129 c-31 -65 -54 -119 -52 -119 7 0 117 230 113 235 -2 2 -30
-50 -61 -116z"/>
</g>
</svg>
